<svg width="40" height="40" viewBox="0 0 40 40" fill="none" xmlns="http://www.w3.org/2000/svg">
<g id="Property 1=Variant2">
<g id="visibility_off">
<mask id="mask0_3562_14651" style="mask-type:alpha" maskUnits="userSpaceOnUse" x="0" y="0" width="40" height="40">
<rect id="Bounding box" width="40" height="40" fill="#D9D9D9"/>
</mask>
<g mask="url(#mask0_3562_14651)">
<path id="visibility_off_2" d="M31.7784 27.7776L26.4173 22.4165C26.6766 21.9628 26.8756 21.4559 27.0145 20.8957C27.1534 20.3355 27.2229 19.7591 27.2229 19.1665C27.2229 17.1573 26.5215 15.4512 25.1187 14.0485C23.7159 12.6457 22.0099 11.9443 20.0007 11.9443C19.4081 11.9443 18.8363 12.0091 18.2854 12.1388C17.7344 12.2684 17.2229 12.4721 16.7507 12.7498L12.2784 8.24984C13.3062 7.79614 14.5238 7.41882 15.9312 7.11788C17.3386 6.81696 18.7414 6.6665 20.1395 6.6665C23.9636 6.6665 27.459 7.70123 30.6257 9.77067C33.7923 11.8401 36.1951 14.5924 37.834 18.0276C37.9173 18.1665 37.9729 18.3355 38.0007 18.5345C38.0284 18.7336 38.0423 18.9443 38.0423 19.1665C38.0423 19.3887 38.0261 19.604 37.9937 19.8123C37.9613 20.0207 37.9081 20.1943 37.834 20.3332C37.1395 21.8239 36.2808 23.1989 35.2576 24.4582C34.2344 25.7174 33.0747 26.8239 31.7784 27.7776ZM32.6674 36.4443L26.6673 30.5554C25.6951 30.9165 24.6372 31.192 23.4937 31.3818C22.3502 31.5716 21.1858 31.6665 20.0007 31.6665C16.121 31.6665 12.5886 30.6318 9.40344 28.5623C6.21825 26.4929 3.80621 23.7406 2.16732 20.3054C2.08398 20.148 2.02843 19.9744 2.00065 19.7845C1.97287 19.5947 1.95898 19.3887 1.95898 19.1665C1.95898 18.9443 1.9775 18.7313 2.01453 18.5276C2.05158 18.3239 2.10251 18.1526 2.16732 18.0137C2.75065 16.7637 3.4775 15.5693 4.34786 14.4304C5.21825 13.2915 6.22289 12.222 7.36178 11.222L3.29232 7.13871C3.02379 6.87018 2.88953 6.54842 2.88953 6.17342C2.88953 5.79842 3.02841 5.47203 3.30619 5.19425C3.57472 4.92575 3.90343 4.7915 4.29232 4.7915C4.68121 4.7915 5.0099 4.92575 5.2784 5.19425L34.6118 34.5276C34.8618 34.7776 34.9891 35.0855 34.9937 35.4512C34.9983 35.817 34.871 36.1387 34.6118 36.4165C34.3618 36.7035 34.0423 36.847 33.6534 36.847C33.2646 36.847 32.9359 36.7128 32.6674 36.4443ZM20.0007 26.3887C20.3618 26.3887 20.7345 26.3609 21.1187 26.3054C21.503 26.2498 21.8479 26.1619 22.1534 26.0415L13.1257 17.0137C13.0053 17.3378 12.9173 17.6827 12.8618 18.0485C12.8062 18.4142 12.7784 18.7869 12.7784 19.1665C12.7784 21.1943 13.4845 22.9049 14.8965 24.2985C16.3085 25.692 18.0099 26.3887 20.0007 26.3887ZM24.3895 20.3888L18.7784 14.7776C20.4543 14.2684 21.9497 14.6387 23.2645 15.8887C24.5794 17.1387 24.9544 18.6387 24.3895 20.3888Z" fill="#656565"/>
</g>
</g>
</g>
</svg>
