<svg width="302" height="117" viewBox="0 0 302 117" fill="none" xmlns="http://www.w3.org/2000/svg">
<path d="M27.6202 57.9016C27.6202 57.9016 32.9383 62.7578 38.8449 62.7578C41.2076 62.7578 43.7706 61.838 43.7706 59.0176C43.7706 53.4379 22.6333 53.6341 22.6333 39.1924C22.6333 30.5266 29.9216 24.8162 39.2414 24.8162C49.3502 24.8162 54.3412 30.1342 54.3412 30.1342L49.4851 39.5195C49.4851 39.5195 44.7598 35.3827 39.1106 35.3827C36.748 35.3827 34.1196 36.4333 34.1196 39.0576C34.1196 44.9683 55.2609 43.9178 55.2609 58.756C55.2609 66.5675 49.2848 73.3284 38.7182 73.3284C27.6897 73.3284 21.5828 66.6329 21.5828 66.6329L27.6202 57.9016Z" fill="white"/>
<path d="M61.3679 38.7305H72.7234V58.5556C72.7234 61.7072 73.9702 63.0193 76.3369 63.0193C81.193 63.0193 83.4944 58.7518 83.4944 53.6954V38.7305H94.8499V72.5395H83.9522V69.5841C83.9522 68.4682 84.083 67.483 84.083 67.483H83.9522C82.1128 71.0965 77.9107 73.3284 73.3815 73.3284C66.686 73.3284 61.3679 70.1768 61.3679 60.6566V38.7305Z" fill="white"/>
<path d="M103.258 25.6011H114.614V38.6652C114.614 40.3739 114.483 41.5552 114.483 41.5552H114.614C114.614 41.5552 117.765 37.9458 123.737 37.9458C132.931 37.9458 138.968 45.1687 138.968 55.6699C138.968 66.3713 132.207 73.3285 123.21 73.3285C116.972 73.3285 113.956 69.5229 113.956 69.5229H113.825C113.825 69.5229 113.89 70.3772 113.89 71.4278V72.5437H103.254V25.6011H103.258ZM120.921 63.9392C124.465 63.9392 127.551 61.0492 127.551 55.862C127.551 50.8096 124.861 47.5273 120.921 47.5273C117.508 47.5273 114.291 50.0207 114.291 55.862C114.291 59.9333 116.453 63.9392 120.921 63.9392Z" fill="white"/>
<path d="M158.217 37.9417C165.043 37.9417 167.079 40.6314 167.079 40.6314H167.209C167.209 40.6314 167.144 39.9774 167.144 39.123V25.6011H178.504V72.5437H167.868V70.3077C167.868 69.2572 167.933 68.407 167.933 68.407H167.802C167.802 68.407 164.978 73.3285 158.02 73.3285C148.831 73.3285 142.79 66.1097 142.79 55.6045C142.786 44.8989 149.22 37.9417 158.217 37.9417ZM160.841 63.9392C164.254 63.9392 167.471 61.4457 167.471 55.6004C167.471 51.5291 165.305 47.5273 160.841 47.5273C157.297 47.5273 154.211 50.4172 154.211 55.6004C154.211 60.6568 156.9 63.9392 160.841 63.9392Z" fill="white"/>
<path d="M202.073 37.9417C212.051 37.9417 217.696 44.8988 217.696 54.2882C217.696 55.4041 217.435 57.8322 217.435 57.8322H196.097C196.951 61.9689 200.365 63.8737 203.974 63.8737C208.834 63.8737 213.298 60.4605 213.298 60.4605L217.5 68.4069C217.5 68.4069 212.051 73.3285 203.058 73.3285C190.979 73.3285 184.48 64.5972 184.48 55.6044C184.48 45.6918 191.176 37.9417 202.073 37.9417ZM206.275 51.3328C206.275 48.7739 204.501 46.4767 201.812 46.4767C198.529 46.4767 196.956 48.8393 196.363 51.3328H206.275Z" fill="white"/>
<path d="M223.877 38.7306H234.774V44.441C234.774 45.557 234.644 46.538 234.644 46.538H234.774C236.217 41.9435 240.485 38.1338 245.541 38.1338C246.199 38.1338 246.853 38.2646 246.853 38.2646V49.4239C246.853 49.4239 245.934 49.2277 244.556 49.2277C241.866 49.2277 237.468 50.082 235.825 55.1343C235.428 56.3811 235.232 57.8935 235.232 59.7289V72.5314H223.877V38.7306Z" fill="white"/>
<path d="M267.275 37.9417C277.253 37.9417 282.898 44.8988 282.898 54.2882C282.898 55.4041 282.637 57.8322 282.637 57.8322H261.303C262.157 61.9689 265.571 63.8737 269.18 63.8737C274.036 63.8737 278.504 60.4605 278.504 60.4605L282.706 68.4069C282.706 68.4069 277.257 73.3285 268.264 73.3285C256.185 73.3285 249.686 64.5972 249.686 55.6044C249.678 45.6918 256.378 37.9417 267.275 37.9417ZM271.477 51.3328C271.477 48.7739 269.703 46.4767 267.014 46.4767C263.731 46.4767 262.153 48.8393 261.565 51.3328H271.477Z" fill="white"/>
<path d="M23.553 82.4031H27.6652C29.7212 82.4031 31.201 83.7888 31.201 85.9266C31.201 88.0604 29.7212 89.4952 27.6652 89.4952H25.1308V93.6523H23.553V82.4031ZM27.4076 88.1258C28.7607 88.1258 29.5904 87.2797 29.5904 85.9266C29.5904 84.5736 28.7606 83.7765 27.424 83.7765H25.1308V88.1258H27.4076Z" fill="white"/>
<path d="M36.6703 85.3994C39.0739 85.3994 41.0196 87.1653 41.0196 89.6056C41.0196 92.0582 39.0779 93.8445 36.6703 93.8445C34.2668 93.8445 32.3211 92.0582 32.3211 89.6056C32.317 87.1694 34.2627 85.3994 36.6703 85.3994ZM36.6703 92.5038C38.1991 92.5038 39.4417 91.2938 39.4417 89.6056C39.4417 87.9338 38.1991 86.7402 36.6703 86.7402C35.1579 86.7402 33.8989 87.9379 33.8989 89.6056C33.8948 91.2938 35.1538 92.5038 36.6703 92.5038Z" fill="white"/>
<path d="M42.8508 85.5913H44.3469V86.9934C44.3469 87.3286 44.3142 87.5984 44.3142 87.5984H44.3469C44.7148 86.4211 45.655 85.4973 46.8976 85.4973C47.1061 85.4973 47.2982 85.53 47.2982 85.53V87.0588C47.2982 87.0588 47.0897 87.0138 46.8526 87.0138C45.8634 87.0138 44.956 87.7128 44.5922 88.9064C44.4491 89.3683 44.4001 89.8629 44.4001 90.3575V93.6563H42.8549V85.5913H42.8508Z" fill="white"/>
<path d="M53.258 86.9445H52.2075V85.7019H53.3071V83.376H54.8032V85.7019H56.7448V86.9445H54.8032V90.5294C54.8032 92.1399 55.9355 92.3443 56.5241 92.3443C56.7448 92.3443 56.892 92.3116 56.892 92.3116V93.681C56.892 93.681 56.6712 93.7137 56.3524 93.7137C55.3141 93.7137 53.2621 93.3948 53.2621 90.7051V86.9445H53.258Z" fill="white"/>
<path d="M58.6128 82.4031H60.1743V83.9809H58.6128V82.4031ZM58.6291 85.5914H60.1743V93.6523H58.6291V85.5914Z" fill="white"/>
<path d="M62.8067 91.9805H64.3845L63.0478 95.2629H61.8215L62.8067 91.9805Z" fill="white"/>
<path d="M70.7573 85.5915H72.1757V86.2742C72.1757 86.5971 72.143 86.8628 72.143 86.8628H72.1757C72.1757 86.8628 72.8625 85.3994 74.8859 85.3994C77.0523 85.3994 78.4217 87.1203 78.4217 89.622C78.4217 92.1849 76.8765 93.8445 74.7714 93.8445C73.0055 93.8445 72.3025 92.5201 72.3025 92.5201H72.2698C72.2698 92.5201 72.3025 92.8062 72.3025 93.2232V96.8367H70.7573V85.5915ZM74.5343 92.5242C75.8097 92.5242 76.8602 91.4696 76.8602 89.6383C76.8602 87.8847 75.92 86.7565 74.5834 86.7565C73.3734 86.7565 72.2575 87.5986 72.2575 89.6587C72.2534 91.0894 73.0505 92.5242 74.5343 92.5242Z" fill="white"/>
<path d="M84.079 85.3994C86.4825 85.3994 88.4283 87.1653 88.4283 89.6056C88.4283 92.0582 86.4866 93.8445 84.079 93.8445C81.6714 93.8445 79.7297 92.0582 79.7297 89.6056C79.7297 87.1694 81.6755 85.3994 84.079 85.3994ZM84.079 92.5038C85.6078 92.5038 86.8504 91.2938 86.8504 89.6056C86.8504 87.9338 85.6078 86.7402 84.079 86.7402C82.5666 86.7402 81.3076 87.9379 81.3076 89.6056C81.3076 91.2938 82.5666 92.5038 84.079 92.5038Z" fill="white"/>
<path d="M90.2634 85.5913H91.7595V86.9934C91.7595 87.3286 91.7268 87.5984 91.7268 87.5984H91.7595C92.1274 86.4211 93.0676 85.4973 94.3102 85.4973C94.5187 85.4973 94.7108 85.53 94.7108 85.53V87.0588C94.7108 87.0588 94.5023 87.0138 94.2652 87.0138C93.276 87.0138 92.3686 87.7128 92.0048 88.9064C91.8617 89.3683 91.8126 89.8629 91.8126 90.3575V93.6563H90.2675V85.5913H90.2634Z" fill="white"/>
<path d="M100.671 86.9445H99.6201V85.7019H100.72V83.376H102.22V85.7019H104.162V86.9445H102.22V90.5294C102.22 92.1399 103.352 92.3443 103.941 92.3443C104.161 92.3443 104.309 92.3116 104.309 92.3116V93.681C104.309 93.681 104.084 93.7137 103.765 93.7137C102.731 93.7137 100.675 93.3948 100.675 90.7051V86.9445H100.671Z" fill="white"/>
<path d="M105.931 85.5915H107.477V90.4027C107.477 91.5186 107.697 92.4097 108.989 92.4097C110.628 92.4097 111.601 90.9586 111.601 89.3644V85.5874H113.146V93.6483H111.65V92.5814C111.65 92.2462 111.683 91.9928 111.683 91.9928H111.65C111.315 92.7898 110.264 93.8445 108.686 93.8445C106.872 93.8445 105.931 92.8879 105.931 90.7501V85.5915Z" fill="white"/>
<path d="M119.666 85.5913H121.162V86.9934C121.162 87.3286 121.129 87.5984 121.129 87.5984H121.162C121.53 86.4211 122.47 85.4973 123.713 85.4973C123.921 85.4973 124.113 85.53 124.113 85.53V87.0588C124.113 87.0588 123.905 87.0138 123.668 87.0138C122.679 87.0138 121.771 87.7128 121.407 88.9064C121.264 89.3683 121.215 89.8629 121.215 90.3575V93.6563H119.67V85.5913H119.666Z" fill="white"/>
<path d="M129.068 85.3994C131.344 85.3994 132.554 87.0876 132.554 89.1764C132.554 89.3849 132.505 89.8427 132.505 89.8427H126.627C126.705 91.6126 127.964 92.5038 129.399 92.5038C130.784 92.5038 131.79 91.5636 131.79 91.5636L132.428 92.6959C132.428 92.6959 131.23 93.8445 129.305 93.8445C126.77 93.8445 125.037 92.0132 125.037 89.622C125.037 87.0549 126.774 85.3994 129.068 85.3994ZM130.981 88.6818C130.931 87.2961 130.073 86.6257 129.039 86.6257C127.862 86.6257 126.905 87.3574 126.68 88.6818H130.981Z" fill="white"/>
<path d="M137.37 95.6594C138.772 95.6594 139.92 95.0381 139.92 93.399V92.8103C139.92 92.5569 139.937 92.2994 139.937 92.2994H139.904C139.426 93.0965 138.678 93.5584 137.513 93.5584C135.264 93.5584 133.911 91.7557 133.911 89.4298C133.911 87.1203 135.203 85.3994 137.431 85.3994C139.372 85.3994 139.965 86.5971 139.965 86.5971H139.998C139.998 86.5971 139.982 86.4826 139.982 86.3396V85.5915H141.461V93.3172C141.461 95.9783 139.438 97.0002 137.398 97.0002C136.425 97.0002 135.424 96.7304 134.643 96.3298L135.154 95.1199C135.158 95.1199 136.16 95.6594 137.37 95.6594ZM139.953 89.4462C139.953 87.3451 138.935 86.7402 137.676 86.7402C136.274 86.7402 135.477 87.758 135.477 89.4012C135.477 91.0731 136.368 92.2217 137.819 92.2217C138.931 92.2176 139.953 91.5473 139.953 89.4462Z" fill="white"/>
<path d="M143.873 82.4031H145.435V83.9809H143.873V82.4031ZM143.889 85.5914H145.435V93.6523H143.889V85.5914Z" fill="white"/>
<path d="M151.619 85.3993C154.023 85.3993 155.969 87.1652 155.969 89.6055C155.969 92.0581 154.023 93.8444 151.619 93.8444C149.216 93.8444 147.27 92.0581 147.27 89.6055C147.27 87.1693 149.212 85.3993 151.619 85.3993ZM151.619 92.5037C153.148 92.5037 154.391 91.2937 154.391 89.6055C154.391 87.9337 153.148 86.7401 151.619 86.7401C150.107 86.7401 148.848 87.9378 148.848 89.6055C148.848 91.2937 150.107 92.5037 151.619 92.5037ZM152.098 82.4031H153.753L152.224 84.4265H150.933L152.098 82.4031Z" fill="white"/>
<path d="M157.804 85.5915H159.3V86.6584C159.3 86.9772 159.267 87.247 159.267 87.247H159.3C159.619 86.544 160.575 85.3994 162.329 85.3994C164.225 85.3994 165.1 86.4336 165.1 88.4897V93.6524H163.555V88.8412C163.555 87.7089 163.314 86.8178 162.026 86.8178C160.8 86.8178 159.811 87.6313 159.476 88.7922C159.382 89.111 159.349 89.4789 159.349 89.8754V93.6524H157.804V85.5915Z" fill="white"/>
<path d="M167.622 91.9805H169.2L167.864 95.2629H166.637L167.622 91.9805Z" fill="white"/>
<path d="M175.573 85.5915H176.991V86.2742C176.991 86.5971 176.958 86.8628 176.958 86.8628H176.991C176.991 86.8628 177.674 85.3994 179.701 85.3994C181.868 85.3994 183.237 87.1203 183.237 89.622C183.237 92.1849 181.692 93.8445 179.591 93.8445C177.821 93.8445 177.122 92.5201 177.122 92.5201H177.089C177.089 92.5201 177.122 92.8062 177.122 93.2232V96.8367H175.577V85.5915H175.573ZM179.35 92.5242C180.625 92.5242 181.676 91.4696 181.676 89.6383C181.676 87.8847 180.735 86.7565 179.399 86.7565C178.189 86.7565 177.073 87.5986 177.073 89.6587C177.069 91.0894 177.866 92.5242 179.35 92.5242Z" fill="white"/>
<path d="M188.894 85.3994C191.302 85.3994 193.244 87.1653 193.244 89.6056C193.244 92.0582 191.302 93.8445 188.894 93.8445C186.491 93.8445 184.545 92.0582 184.545 89.6056C184.545 87.1694 186.487 85.3994 188.894 85.3994ZM188.894 92.5038C190.423 92.5038 191.666 91.2938 191.666 89.6056C191.666 87.9338 190.423 86.7402 188.894 86.7402C187.382 86.7402 186.123 87.9379 186.123 89.6056C186.123 91.2938 187.382 92.5038 188.894 92.5038Z" fill="white"/>
<path d="M195.079 85.5913H196.575V86.9934C196.575 87.3286 196.542 87.5984 196.542 87.5984H196.575C196.943 86.4211 197.883 85.4973 199.126 85.4973C199.334 85.4973 199.526 85.53 199.526 85.53V87.0588C199.526 87.0588 199.318 87.0138 199.081 87.0138C198.092 87.0138 197.184 87.7128 196.82 88.9064C196.677 89.3683 196.628 89.8629 196.628 90.3575V93.6563H195.083V85.5913H195.079Z" fill="white"/>
<path d="M205.486 86.9445H204.436V85.7019H205.535V83.376H207.036V85.7019H208.977V86.9445H207.036V90.5294C207.036 92.1399 208.168 92.3443 208.756 92.3443C208.981 92.3443 209.124 92.3116 209.124 92.3116V93.681C209.124 93.681 208.9 93.7137 208.581 93.7137C207.546 93.7137 205.49 93.3948 205.49 90.7051V86.9445H205.486Z" fill="white"/>
<path d="M210.743 85.5915H212.288V90.4027C212.288 91.5186 212.509 92.4097 213.8 92.4097C215.44 92.4097 216.412 90.9586 216.412 89.3644V85.5874H217.958V93.6483H216.462V92.5814C216.462 92.2462 216.494 91.9928 216.494 91.9928H216.462C216.126 92.7898 215.076 93.8445 213.498 93.8445C211.683 93.8445 210.743 92.8879 210.743 90.7501V85.5915Z" fill="white"/>
<path d="M228.226 85.3994C230.249 85.3994 231.255 86.5767 231.255 86.5767L230.523 87.6599C230.523 87.6599 229.661 86.7361 228.291 86.7361C226.669 86.7361 225.487 87.946 225.487 89.6015C225.487 91.2407 226.669 92.4997 228.34 92.4997C229.841 92.4997 230.826 91.4164 230.826 91.4164L231.447 92.5487C231.447 92.5487 230.331 93.8404 228.23 93.8404C225.696 93.8404 223.914 92.0378 223.914 89.6179C223.909 87.2307 225.692 85.3994 228.226 85.3994Z" fill="white"/>
<path d="M236.961 85.3994C239.365 85.3994 241.311 87.1653 241.311 89.6056C241.311 92.0582 239.369 93.8445 236.961 93.8445C234.554 93.8445 232.612 92.0582 232.612 89.6056C232.608 87.1694 234.554 85.3994 236.961 85.3994ZM236.961 92.5038C238.49 92.5038 239.733 91.2938 239.733 89.6056C239.733 87.9338 238.49 86.7402 236.961 86.7402C235.449 86.7402 234.19 87.9379 234.19 89.6056C234.186 91.2938 235.445 92.5038 236.961 92.5038Z" fill="white"/>
<path d="M243.142 85.5915H244.638V86.6584C244.638 86.9772 244.605 87.247 244.605 87.247H244.638C245.022 86.3069 246.15 85.3994 247.409 85.3994C248.762 85.3994 249.559 86.0207 249.833 87.2307H249.866C250.312 86.2578 251.428 85.3994 252.736 85.3994C254.55 85.3994 255.397 86.4336 255.397 88.4897V93.6524H253.852V88.8249C253.852 87.6926 253.627 86.8056 252.417 86.8056C251.284 86.8056 250.442 87.7621 250.152 88.8617C250.074 89.1968 250.042 89.5647 250.042 89.9776V93.6565H248.497V88.8249C248.497 87.7743 248.337 86.8056 247.095 86.8056C245.917 86.8056 245.088 87.7743 244.785 88.923C244.703 89.2418 244.691 89.6097 244.691 89.9776V93.6565H243.146V85.5915H243.142Z" fill="white"/>
<path d="M257.6 85.5915H259.145V90.4027C259.145 91.5186 259.366 92.4097 260.657 92.4097C262.297 92.4097 263.269 90.9586 263.269 89.3644V85.5874H264.815V93.6483H263.318V92.5814C263.318 92.2462 263.351 91.9928 263.351 91.9928H263.318C262.983 92.7898 261.933 93.8445 260.355 93.8445C258.54 93.8445 257.6 92.8879 257.6 90.7501V85.5915Z" fill="white"/>
<path d="M267.239 85.5915H268.735V86.6584C268.735 86.9772 268.702 87.247 268.702 87.247H268.735C269.053 86.544 270.01 85.3994 271.764 85.3994C273.66 85.3994 274.535 86.4336 274.535 88.4897V93.6524H272.99V88.8412C272.99 87.7089 272.749 86.8178 271.461 86.8178C270.235 86.8178 269.246 87.6313 268.91 88.7922C268.816 89.111 268.784 89.4789 268.784 89.8754V93.6524H267.239V85.5915Z" fill="white"/>
<path d="M281.055 88.6164H281.406V88.4733C281.406 87.1489 280.658 86.7075 279.636 86.7075C278.394 86.7075 277.388 87.4882 277.388 87.4882L276.75 86.3559C276.75 86.3559 277.915 85.3994 279.763 85.3994C281.803 85.3994 282.947 86.5153 282.947 88.5551V93.6524H281.513V92.888C281.513 92.5242 281.545 92.2503 281.545 92.2503H281.513C281.513 92.2503 280.859 93.8445 278.933 93.8445C277.548 93.8445 276.195 92.9984 276.195 91.3919C276.195 88.7268 279.702 88.6164 281.055 88.6164ZM279.273 92.6019C280.581 92.6019 281.423 91.2325 281.423 90.0389V89.7855H281.026C279.861 89.7855 277.76 89.8672 277.76 91.3143C277.756 91.9642 278.267 92.6019 279.273 92.6019Z" fill="white"/>
</svg>
