<svg width="40" height="40" viewBox="0 0 40 40" fill="none" xmlns="http://www.w3.org/2000/svg">
<g id="Property 1=Default">
<path id="visibility" d="M20.0039 26.3887C22.011 26.3887 23.7159 25.6862 25.1187 24.2813C26.5215 22.8763 27.2229 21.1703 27.2229 19.1633C27.2229 17.1562 26.5204 15.4512 25.1154 14.0485C23.7105 12.6457 22.0045 11.9443 19.9974 11.9443C17.9903 11.9443 16.2854 12.6468 14.8826 14.0517C13.4798 15.4567 12.7784 17.1627 12.7784 19.1698C12.7784 21.1768 13.4809 22.8818 14.8859 24.2845C16.2908 25.6873 17.9968 26.3887 20.0039 26.3887ZM19.9941 23.7776C18.7114 23.7776 17.6233 23.3287 16.7298 22.4308C15.8363 21.5329 15.3895 20.4427 15.3895 19.16C15.3895 17.8773 15.8385 16.7892 16.7364 15.8957C17.6342 15.0021 18.7245 14.5554 20.0072 14.5554C21.2899 14.5554 22.378 15.0043 23.2715 15.9022C24.165 16.8001 24.6118 17.8904 24.6118 19.173C24.6118 20.4557 24.1628 21.5438 23.2649 22.4373C22.3671 23.3309 21.2768 23.7776 19.9941 23.7776ZM20.0007 31.6665C16.1581 31.6665 12.6534 30.6318 9.48678 28.5623C6.32011 26.4929 3.89089 23.7399 2.19911 20.3033C2.11311 20.1658 2.05158 19.9959 2.01453 19.7936C1.9775 19.5913 1.95898 19.3823 1.95898 19.1665C1.95898 18.9507 1.9775 18.7417 2.01453 18.5394C2.05158 18.3371 2.11311 18.1672 2.19911 18.0298C3.89092 14.5931 6.32014 11.8401 9.48678 9.77067C12.6534 7.70123 16.1581 6.6665 20.0007 6.6665C23.8432 6.6665 27.3479 7.70123 30.5145 9.77067C33.6812 11.8401 36.1104 14.5931 37.8022 18.0298C37.8882 18.1672 37.9497 18.3371 37.9868 18.5394C38.0238 18.7417 38.0423 18.9507 38.0423 19.1665C38.0423 19.3823 38.0238 19.5913 37.9868 19.7936C37.9497 19.9959 37.8882 20.1658 37.8022 20.3033C36.1104 23.7399 33.6812 26.4929 30.5145 28.5623C27.3479 30.6318 23.8432 31.6665 20.0007 31.6665Z" fill="#656565"/>
</g>
</svg>
