<svg width="24" height="24" viewBox="0 0 24 24" fill="none" xmlns="http://www.w3.org/2000/svg">
<g id="house">
<mask id="mask0_1060_10244" style="mask-type:alpha" maskUnits="userSpaceOnUse" x="0" y="0" width="24" height="24">
<rect id="Bounding box" width="24" height="24" fill="#D9D9D9"/>
</mask>
<g mask="url(#mask0_1060_10244)">
<path id="house_2" d="M10.0002 20H6.0002C5.71686 20 5.47936 19.9042 5.2877 19.7125C5.09603 19.5208 5.0002 19.2833 5.0002 19V12H3.3002C3.06686 12 2.90853 11.8917 2.8252 11.675C2.74186 11.4583 2.79186 11.275 2.9752 11.125L11.3252 3.60001C11.5085 3.41668 11.7335 3.32501 12.0002 3.32501C12.2669 3.32501 12.4919 3.41668 12.6752 3.60001L16.0002 6.60001V5.00001C16.0002 4.71668 16.096 4.47918 16.2877 4.28751C16.4794 4.09585 16.7169 4.00001 17.0002 4.00001H18.0002C18.2835 4.00001 18.521 4.09585 18.7127 4.28751C18.9044 4.47918 19.0002 4.71668 19.0002 5.00001V9.30001L21.0252 11.125C21.2085 11.275 21.2585 11.4583 21.1752 11.675C21.0919 11.8917 20.9335 12 20.7002 12H19.0002V19C19.0002 19.2833 18.9044 19.5208 18.7127 19.7125C18.521 19.9042 18.2835 20 18.0002 20H14.0002V15C14.0002 14.7167 13.9044 14.4792 13.7127 14.2875C13.521 14.0958 13.2835 14 13.0002 14H11.0002C10.7169 14 10.4794 14.0958 10.2877 14.2875C10.096 14.4792 10.0002 14.7167 10.0002 15V20ZM10.0002 10.025H14.0002C14.0002 9.49168 13.8002 9.05418 13.4002 8.71251C13.0002 8.37085 12.5335 8.20001 12.0002 8.20001C11.4669 8.20001 11.0002 8.37085 10.6002 8.71251C10.2002 9.05418 10.0002 9.49168 10.0002 10.025Z" fill="#0F69C4"/>
</g>
</g>
</svg>
