<svg width="1920" height="1080" viewBox="0 0 1920 1080" fill="none" xmlns="http://www.w3.org/2000/svg">
<path d="M260.17 681.85C265.5 681.85 269.49 681.24 273.36 679.43C280.74 675.68 285.1 667.21 285.1 655.6C285.1 642.65 279.9 634.42 271.79 631.03C268.04 629.46 264.53 629.21 260.17 629.21H253.88V681.85H260.17ZM222.54 683.06H232.22V628H222.54V612.27H260.66C267.44 612.27 273 612.51 278.45 614.09C295.63 618.93 307.49 633.69 307.49 655.47C307.49 675.44 297.45 690.08 281.47 695.89C275.18 698.19 268.64 698.79 260.78 698.79H222.54V683.06Z" fill="#E98788"/>
<path d="M322.69 683.06H332.38V628H322.69V612.28H389.37V637.81H371.22V629.21H354.04V646.76H379.33V663.71H354.04V681.85H372.67V673.27H390.82V698.79H322.69V683.06Z" fill="#E98788"/>
<path d="M425.51 668.06V674.47C425.51 678.95 431.2 681.49 437.97 681.49C444.74 681.49 449.59 679.19 449.59 674.47C449.59 667.82 440.03 665.64 430.95 662.13C419.22 657.53 408.2 651.96 408.2 636.11C408.2 616.87 423.93 610.82 439.3 610.82C454.06 610.82 468.7 616.39 468.7 627.4V640.22H449.34V634.77C449.34 631.38 444.74 629.57 439.3 629.57C434.34 629.57 429.98 631.02 429.98 635.5C429.98 641.55 437.12 643.85 444.98 646.75C458.17 651.22 471.36 656.79 471.36 673.13C471.36 692.86 454.42 700.24 437.96 700.24C421.87 700.24 406.13 693.1 406.13 679.19V668.06H425.51Z" fill="#E98788"/>
<path d="M530.27 610.82C540.8 610.82 565.24 614.09 565.24 628.12V641.79H545.88V635.14C545.88 630.3 537.04 628.97 531.24 628.97C517.2 628.97 507.4 638.16 507.4 654.14C507.4 672.05 518.05 682.09 532.45 682.09C536.32 682.09 546.85 681.12 546.85 675.92V669.27H566.21V683.19C566.21 696.38 542.86 700.25 530.88 700.25C504.38 700.25 485.02 680.64 485.02 655.36C485.02 629.58 504.98 610.82 530.27 610.82Z" fill="#E98788"/>
<path d="M582.14 683.06H591.82V628H582.14V612.28H648.81V637.81H630.66V629.21H613.48V646.76H638.77V663.71H613.48V681.85H632.11V673.27H650.26V698.79H582.14V683.06Z" fill="#E98788"/>
<path d="M666.56 683.06H676.24V628H666.56V612.27H698.14L725.24 658.13C726.33 659.95 727.18 662 727.78 663.81L728.87 666.95H729.35L728.98 663.56C728.62 661.63 728.62 659.2 728.62 657.27V628H718.45V612.27H759.95V628H750.27V698.79H728.49L701.26 653.17C700.29 651.35 699.33 649.29 698.72 647.48L697.63 644.34H697.15L697.51 647.73C697.88 649.66 697.88 652.09 697.88 654.02V683.06H708.04V698.79H666.53V683.06H666.56Z" fill="#E98788"/>
<path d="M790.79 683.06H800.48V629.21H790.19V641.44H772.04V612.28H850.57V641.44H832.42V629.21H822.13V683.06H831.82V698.79H790.79V683.06Z" fill="#E98788"/>
<path d="M905.23 651.48C912.01 651.48 916.24 648.09 916.24 640.23C916.24 636.24 915.27 632.49 911.52 630.67C909.58 629.7 906.8 629.22 903.17 629.22H895.42V651.49H905.23V651.48ZM864.08 683.06H873.76V628H864.08V612.27H903.17C909.82 612.27 915.51 612.51 920.47 613.96C931 617.23 937.78 625.58 937.78 638.29C937.78 649.78 932.46 657.28 923.74 662V662.24C924.34 662.6 925.07 662.96 925.68 663.45C926.77 664.3 928.1 665.51 929.07 667.44L935.73 680.26C936.82 682.32 938.51 683.04 941.3 683.04H944.32V698.77H930.04C923.14 698.77 920.24 697.08 917.82 692.35L907.29 672.14C905.84 669.36 904.27 668.39 899.79 668.39H895.43V683.03H904.5V698.76H864.08V683.06Z" fill="#E98788"/>
<path d="M1003.2 655.11L998.72 639.13C997.88 636.35 997.76 634.17 997.39 632.6L997.03 630.06H996.55C996.55 630.91 996.43 631.76 996.31 632.6C995.95 634.17 995.7 636.35 994.86 639.13L990.27 655.11H1003.2ZM953.71 683.06H960.85L984.44 612.28H1009.13L1032.72 683.06H1039.87V698.79H1003.68V683.06H1011.19L1007.92 671.57H985.65L982.39 683.06H989.89V698.79H953.71V683.06Z" fill="#E98788"/>
<path d="M1051.81 683.06H1061.48V629.21H1051.81V612.28H1092.83V629.21H1083.15V681.85H1101.78V669.15H1119.93V698.79H1051.81V683.06Z" fill="#E98788"/>
<path d="M1133.21 683.06H1142.88V628H1133.21V612.28H1174.23V628H1164.55V683.06H1174.23V698.79H1133.21V683.06Z" fill="#E98788"/>
<path d="M1190.9 685.48L1227.8 633.2C1228.65 631.87 1229.5 631.02 1230.34 630.18L1231.68 629.09V628.85C1231.07 628.85 1230.59 628.85 1229.98 628.98C1229.01 629.1 1227.8 629.22 1226.47 629.22H1209.53V641.45H1191.38V612.29H1257.81V625.36L1220.79 677.87C1219.94 679.21 1219.09 679.93 1218.24 680.78L1216.91 681.99V682.23L1218.61 681.99C1219.58 681.86 1220.79 681.86 1222.12 681.86H1241.12V669.15H1259.27V698.8H1190.9V685.48Z" fill="#E98788"/>
<path d="M1320.35 655.11L1315.87 639.13C1315.02 636.35 1314.9 634.17 1314.54 632.6L1314.18 630.06H1313.69C1313.69 630.91 1313.57 631.76 1313.45 632.6C1313.09 634.17 1312.84 636.35 1312 639.13L1307.4 655.11H1320.35ZM1270.85 683.06H1277.99L1301.59 612.28H1326.28L1349.87 683.06H1357.01V698.79H1320.83V683.06H1328.33L1325.07 671.57H1302.8L1299.53 683.06H1307.04V698.79H1270.86V683.06H1270.85Z" fill="#E98788"/>
<path d="M1411.3 610.82C1421.83 610.82 1446.27 614.09 1446.27 628.12V641.79H1426.91V635.14C1426.91 630.3 1418.07 628.97 1412.26 628.97C1398.23 628.97 1388.43 638.16 1388.43 654.14C1388.43 672.05 1399.08 682.09 1413.47 682.09C1417.35 682.09 1427.87 681.12 1427.87 675.92V669.27H1447.23V683.19C1447.23 696.38 1423.88 700.25 1411.9 700.25C1385.4 700.25 1366.04 680.64 1366.04 655.36C1366.04 629.58 1386.01 610.82 1411.3 610.82Z" fill="#E98788"/>
<path d="M1463.17 683.06H1472.85V628H1463.17V612.28H1504.19V628H1494.51V683.06H1504.19V698.79H1463.17V683.06Z" fill="#E98788"/>
<path d="M1567.57 588.56H1588.99L1570.72 606.71H1553.54L1567.57 588.56ZM1564.43 681.49C1577.14 681.49 1587.54 670.11 1587.54 654.99C1587.54 640.47 1577.13 629.58 1564.43 629.58C1551.73 629.58 1541.32 640.47 1541.32 654.99C1541.32 670.11 1551.72 681.49 1564.43 681.49ZM1564.43 610.82C1590.93 610.82 1609.93 630.18 1609.93 654.99C1609.93 680.4 1590.93 700.25 1564.43 700.25C1537.93 700.25 1518.93 680.41 1518.93 654.99C1518.93 630.19 1537.93 610.82 1564.43 610.82Z" fill="#E98788"/>
<path d="M1624.76 683.06H1634.44V628H1624.76V612.27H1656.34L1683.45 658.13C1684.54 659.95 1685.38 662 1685.99 663.81L1687.08 666.95H1687.57L1687.21 663.56C1686.85 661.63 1686.85 659.2 1686.85 657.27V628H1676.68V612.27H1718.18V628H1708.49V698.79H1686.71L1659.48 653.17C1658.51 651.35 1657.55 649.29 1656.94 647.48L1655.85 644.34H1655.36L1655.72 647.73C1656.08 649.66 1656.08 652.09 1656.08 654.02V683.06H1666.25V698.79H1624.75V683.06H1624.76Z" fill="#E98788"/>
<path d="M265.68 787.96C269.31 787.96 272.14 787.39 274.64 786.37C279.74 784.1 282.69 779 282.69 772.09C282.69 765.63 280.08 760.86 275.55 758.48C273.05 757.12 269.66 756.55 265.8 756.55H250.83V787.96H265.68ZM229.51 818.47H239.49V755.99H229.51V747.26H266.82C271.69 747.26 276.57 747.6 280.54 749.42C288.82 752.93 294.15 761.44 294.15 772.1C294.15 783.33 288.25 792.39 279.07 795.57C275.33 796.94 271.47 797.28 267.05 797.28H250.83V818.48H260.92V827.32H229.51V818.47Z" fill="#3893AD"/>
<path d="M344.94 791.59L335.19 763.81C334.06 760.52 333.83 757.68 333.83 757.68H333.49C333.49 757.68 333.15 760.51 332.13 763.81L322.27 791.59H344.94ZM294.03 818.47H301.74L327.25 747.26H340.06L365.57 818.47H373.28V827.31H345.5V818.47H354.01L347.78 800.67H319.43L313.19 818.47H321.81V827.31H294.03V818.47Z" fill="#3893AD"/>
<path d="M417.97 785.69C426.7 785.69 432.48 780.02 432.48 770.61C432.48 764.38 429.98 760.07 425 758.02C422.39 757 418.99 756.55 415.13 756.55H401.86V785.69H417.97ZM380.55 818.47H390.53V755.99H380.55V747.26H415.25C420.92 747.26 425.57 747.49 429.99 748.97C438.38 751.8 443.94 758.83 443.94 769.71C443.94 781.28 437.59 789.55 427.39 792.17V792.39C427.39 792.39 429.43 793.53 430.79 796.13L442.13 815.86C443.38 818.02 444.85 818.47 447.69 818.47H450.07V827.31H443.27C436.46 827.31 434.88 826.06 432.16 821.3L419.8 799.42C417.76 796.02 416.28 795 411.41 795H401.88V818.47H411.75V827.31H380.57V818.47H380.55Z" fill="#3893AD"/>
<path d="M506.3 791.59L496.55 763.81C495.42 760.52 495.19 757.68 495.19 757.68H494.85C494.85 757.68 494.51 760.51 493.49 763.81L483.63 791.59H506.3ZM455.39 818.47H463.1L488.61 747.26H501.42L526.93 818.47H534.64V827.31H506.86V818.47H515.37L509.14 800.67H480.79L474.55 818.47H483.17V827.31H455.39V818.47Z" fill="#3893AD"/>
<path d="M570.26 818.47H580.24V755.99H570.26V747.25H628.2V765.85H618.34V756.55H591.58V782.29H619.93V791.59H591.58V818.01H620.27V808.37H630.13V827.31H570.26V818.47Z" fill="#3893AD"/>
<path d="M642.04 818.47H652.02V756.55H642.04V747.25H673.45V756.55H663.36V818.01H691.25V805.09H701.23V827.31H642.04V818.47Z" fill="#3893AD"/>
<path d="M802.35 806.14C804.32 806.14 805.98 805.84 807.34 805.23C811.57 803.41 813.84 798.42 813.84 793.43C813.84 786.93 810.21 782.24 802.5 782.24H786.77V806.13H802.35V806.14ZM800.09 761.07C806.74 761.07 809.62 756.53 809.62 750.63C809.62 746.85 808.11 742.92 804.63 741.25C802.66 740.5 800.85 740.34 797.97 740.34H786.78V761.06H800.09V761.07ZM747.61 807.65H759.71V738.85H747.61V719.19H798.12C806.59 719.19 811.88 719.49 817.93 721.46C829.42 725.54 836.83 734.61 836.83 747.32C836.83 756.84 832.44 765.77 823.98 770.46V770.76C836.68 774.69 841.22 785.13 841.22 795.56C841.22 811.74 829.88 822.63 817.18 825.81C811.28 827.18 806.9 827.32 801 827.32H747.62V807.65H747.61Z" fill="#3893AD"/>
<path d="M862.06 807.65H874.16V738.84H862.06V719.18H913.33V738.84H901.23V807.65H913.33V827.31H862.06V807.65Z" fill="#3893AD"/>
<path d="M935.69 807.65H947.79V738.84H935.69V719.18H1019.02V751.09H996.33V740.35H974.86V762.28H1006.47V783.46H974.86V806.14H998.15V795.4H1020.84V827.31H935.69V807.65Z" fill="#3893AD"/>
<path d="M1042.89 807.65H1054.99V738.85H1042.89V719.19H1082.36L1116.23 776.5C1117.59 778.77 1118.65 781.34 1119.41 783.61L1120.77 787.54H1121.38L1120.93 783.3C1120.48 780.88 1120.48 777.86 1120.48 775.44V738.84H1107.77V719.18H1159.64V738.84H1147.54V827.31H1120.32L1086.29 770.29C1085.08 768.02 1083.87 765.45 1083.12 763.19L1081.76 759.25H1081.15L1081.6 763.49C1082.05 765.9 1082.05 768.93 1082.05 771.35V807.64H1094.76V827.3H1042.88V807.65H1042.89Z" fill="#3893AD"/>
<path d="M1180.32 807.65H1192.42V738.84H1180.32V719.18H1263.65V751.09H1240.96V740.35H1219.49V762.28H1251.1V783.46H1219.49V806.14H1242.78V795.4H1265.46V827.31H1180.32V807.65Z" fill="#3893AD"/>
<path d="M1310.36 788.9V796.92C1310.36 802.52 1317.47 805.69 1325.94 805.69C1334.41 805.69 1340.45 802.82 1340.45 796.92C1340.45 788.6 1328.5 785.88 1317.17 781.49C1302.5 775.75 1288.74 768.79 1288.74 748.98C1288.74 724.93 1308.4 717.38 1327.6 717.38C1346.05 717.38 1364.35 724.33 1364.35 738.1V754.13H1340.15V747.32C1340.15 743.08 1334.41 740.82 1327.6 740.82C1321.4 740.82 1315.96 742.64 1315.96 748.23C1315.96 755.79 1324.88 758.66 1334.71 762.29C1351.19 767.89 1367.67 774.84 1367.67 795.25C1367.67 819.9 1346.5 829.13 1325.94 829.13C1305.82 829.13 1286.16 820.21 1286.16 802.82V788.9H1310.36Z" fill="#3893AD"/>
<path d="M1408.03 807.65H1420.13V740.35H1407.27V755.63H1384.59V719.18H1482.74V755.63H1460.05V740.35H1447.2V807.65H1459.29V827.31H1408.03V807.65Z" fill="#3893AD"/>
<path d="M1549.7 772.72L1544.1 752.76C1543.04 749.28 1542.89 746.56 1542.44 744.6L1541.98 741.43H1541.37C1541.37 742.49 1541.22 743.55 1541.07 744.6C1540.62 746.56 1540.32 749.29 1539.26 752.76L1533.51 772.72H1549.7ZM1487.85 807.65H1496.77L1526.26 719.19H1557.11L1586.6 807.65H1595.53V827.31H1550.31V807.65H1559.69L1555.61 793.28H1527.79L1523.71 807.65H1533.09V827.31H1487.87V807.65H1487.85Z" fill="#3893AD"/>
<path d="M1663.4 768.18C1671.88 768.18 1677.17 763.94 1677.17 754.12C1677.17 749.13 1675.96 744.44 1671.27 742.17C1668.85 740.96 1665.37 740.35 1660.83 740.35H1651.15V768.18H1663.4ZM1611.99 807.65H1624.08V738.85H1611.99V719.19H1660.83C1669.15 719.19 1676.26 719.49 1682.45 721.3C1695.61 725.39 1704.08 735.82 1704.08 751.7C1704.08 766.07 1697.42 775.44 1686.54 781.34V781.64C1687.29 782.09 1688.2 782.55 1688.95 783.15C1690.32 784.21 1691.98 785.72 1693.19 788.14L1701.5 804.17C1702.87 806.74 1704.98 807.65 1708.46 807.65H1712.24V827.31H1694.4C1685.78 827.31 1682.15 825.19 1679.13 819.29L1665.97 794.03C1664.15 790.55 1662.19 789.34 1656.59 789.34H1651.14V807.64H1662.49V827.3H1611.98V807.65H1611.99Z" fill="#3893AD"/>
<path d="M1628.62 431.82H1660.25V443.71C1649.7 454.99 1639.16 466.26 1628.62 477.54V431.82ZM1730.34 477.02C1719.81 465.32 1709.26 453.62 1698.73 441.92V431.82H1730.34V477.02ZM1697.02 550.93V498.79C1707.11 510.04 1717.2 521.3 1727.3 532.55V550.92H1697.02V550.93ZM1628.93 550.93V531.26C1639.02 520.3 1649.11 509.36 1659.21 498.4V550.93H1628.93Z" stroke="#3893AD" stroke-width="15.1198"/>
<path d="M385.2 550.21H421.07V516.91C421.07 509.03 427.46 502.63 435.35 502.63C443.23 502.63 449.63 509.02 449.63 516.91V550.21H482.91" stroke="#3893AD" stroke-width="15.1198"/>
<path d="M240.01 557.77V526.51C240.01 526.51 213.89 527.66 204.41 516.93C202.8 521.76 203.43 530.33 194.36 535.08C194.36 535.08 194.3 554.44 194.29 557.74" stroke="#3893AD" stroke-width="15.1198" stroke-linejoin="round"/>
<path d="M848.49 548.49L926.63 548.43L926.66 500.39C926.66 481.59 941.91 466.34 960.71 466.34C979.52 466.34 994.76 481.59 994.76 500.39L994.64 548.43L1072.74 548.49" stroke="#3893AD" stroke-width="15.1198"/>
<path d="M1588.04 201.28C1588.04 201.28 1565.32 210.94 1544.65 207.22M1490.17 200.18C1490.17 200.18 1512.9 209.84 1533.56 206.12M1622.87 247C1622.87 247 1578.49 256.63 1545.59 249.65M1455.34 245.91C1455.34 245.91 1499.72 255.53 1532.63 248.56M1659.51 297.85C1659.51 297.85 1582.83 318.96 1545.41 291.39M1418.7 296.75C1418.7 296.75 1495.39 317.86 1532.8 290.3M1538.85 186.51V547.15" stroke="#3893AD" stroke-width="15.1198" stroke-linecap="round" stroke-linejoin="round"/>
<path d="M1297 421.17C1292.45 405.9 1282.55 400.49 1271.19 399.72C1264.27 400.2 1258.25 404.08 1253.01 410.34C1223.69 445.39 1219.36 554.42 1219.36 554.42M1348.58 421.17C1344.03 405.9 1334.12 400.49 1322.77 399.72C1315.84 400.2 1309.83 404.08 1304.59 410.34C1275.27 445.39 1270.94 554.42 1270.94 554.42M1399.75 421.17C1395.2 405.9 1385.3 400.49 1373.94 399.72C1367.02 400.2 1361 404.08 1355.76 410.34C1326.44 445.39 1322.12 554.42 1322.12 554.42M1789.53 893.49L1793.39 558L1758.5 558.06V429.58L1758.36 374.27H1793.5L1678.53 328.79L1565.5 374.27L1599.08 374.19V429.58V430.95L1599.65 551.63H1496.8C1496.8 551.63 1489.27 391.87 1435.54 388.16C1381.8 391.87 1373.8 551.63 1373.8 551.63L1181.7 551.64L1181.8 458.19H1045.6V424.14L970.39 375.51H964.23V287.24H1032.32V242.55H964.23H964.22H952.89V375.52H946.05L871.56 424.15V458.2H735.36L735.34 551.65L644.63 551.64L644.4 477.93C648.49 481.1 653.61 482.99 659.18 482.99C672.55 482.99 683.39 472.14 683.39 458.78C683.39 449.33 677.97 441.17 670.08 437.18C675.07 433.55 678.34 427.53 678.34 420.7C678.34 409.62 669.74 400.63 659.12 400.63C658.36 400.63 657.61 400.7 656.87 400.78C657.14 399.32 657.3 397.81 657.3 396.28C657.3 382.91 646.46 372.07 633.09 372.07C619.72 372.07 608.88 382.91 608.88 396.28C608.88 397.81 609.04 399.3 609.31 400.75C608.63 400.68 607.94 400.63 607.23 400.63C596.61 400.63 588 409.62 588 420.7C588 427.51 591.25 433.5 596.2 437.13C588.26 441.11 582.79 449.3 582.79 458.78C582.79 472.14 593.62 482.99 607 482.99C612.58 482.99 617.65 481 621.74 477.83L621.7 551.21L526.77 551.37L526.73 496.23L534.97 486.71V448.65L521.07 439.13L506.4 448.65V467.67H458.79V296.37L468.31 286.85V267.82H449.27V248.79L435.37 239.27L420.71 248.79V267.82H401.67V286.85L411.19 296.37L411.34 467.66H363.58V448.64L349.49 439.12L335.01 448.64V486.7L344.53 496.22L344.2 551.36H306.06H262.13C262.13 551.36 261.24 527.56 269.51 511.18C272.28 500.48 275.53 498.56 271.93 477.27C271.87 476.94 260.8 443.75 265.34 444.25C270.18 444.79 287.05 449.76 289.77 437.55C292.24 426.43 260.03 419.12 260.29 417.78C260.56 416.44 266.6 405.05 263.34 403.01C259.04 400.32 250.35 412.68 247.39 424.22C244.82 434.26 245.09 465.78 245.09 465.78L186.86 470.63C186.86 470.63 179.84 470.35 172.08 478.61C162.8 488.49 169.75 500.7 184.71 484.91C199.66 469.13 176.81 503.72 175.5 508.76C174.77 511.59 171.68 514.71 171.11 518.44L171.16 551.34L145.33 551.36L127.64 551.57L127.74 560.19L128.93 893.49H1789.53Z" stroke="#3893AD" stroke-width="15.1198"/>
</svg>
