<svg width="70" height="70" viewBox="0 0 70 70" fill="none" xmlns="http://www.w3.org/2000/svg">
<path fill-rule="evenodd" clip-rule="evenodd" d="M35 70C54.33 70 70 54.33 70 35C70 15.67 54.33 0 35 0C15.67 0 0 15.67 0 35C0 54.33 15.67 70 35 70Z" fill="#0F69C4"/>
<path d="M35 66V70" stroke="#0F69C4" stroke-width="4"/>
<path d="M66 35H70" stroke="#0F69C4" stroke-width="4"/>
<path d="M27.6 49V45.6624L32.2917 45.0902V26.2849H27.5427V23.0999L37.8418 21.2308V45.0902L42.5335 45.6624V49H27.6Z" fill="#0F69C4"/>
<path fill-rule="evenodd" clip-rule="evenodd" d="M29.3446 46.9749L18.1846 35.8149L20.3146 33.6849L29.3446 42.7299L50.0446 22.0449L52.1596 24.1599L29.3446 46.9749V46.9749Z" fill="white"/>
</svg>
